<?xml version="1.0" encoding="UTF-8" standalone="no"?>
<!DOCTYPE svg PUBLIC "-//W3C//DTD SVG 1.1//EN" "http://www.w3.org/Graphics/SVG/1.1/DTD/svg11.dtd">
<svg xmlns="http://www.w3.org/2000/svg" xmlns:xlink="http://www.w3.org/1999/xlink" version="1.1" width="625pt" height="613.88888pt" viewBox="0 0 625 613.88888">
<g enable-background="new">
<clipPath id="cp0">
<path transform="matrix(2.7777777,0,0,-2.7777777,0,613.88888)" d="M 0 .2000049 L 224.88 .2000049 L 224.88 221.00002 L 0 221.00002 Z "/>
</clipPath>
<g clip-path="url(#cp0)">
<path transform="matrix(2.7777777,0,0,-2.7777777,0,613.88888)" d="M 0 221 L 224.88 221 L 224.88 .2000049 L 0 .2000049 Z " fill="#ffffff"/>
</g>
<path transform="matrix(2.7777777,0,0,-2.7777777,0,613.88888)" d="M 0 221 L 225.125 221 L 225.125 -.1250336 L 0 -.1250336 Z " fill="#ffffff"/>
<path transform="matrix(2.7777777,0,0,-2.7777777,0,613.88888)" d="M 1.215827 202.4001 C 1.215827 212.1721 9.137623 220.0939 18.90965 220.0939 L 86.49247 220.0939 C 96.2645 220.0939 104.1863 212.1721 104.1863 202.4001 L 104.1863 178.0032 C 104.1863 168.2312 96.2645 160.3094 86.49247 160.3094 L 18.90965 160.3094 C 9.137623 160.3094 1.215827 168.2312 1.215827 178.0032 Z " fill="#ededef"/>
<path transform="matrix(.00021872265,0,0,.00021872265,3.3772972,2.5169373)" stroke-width="22225" stroke-linecap="butt" stroke-miterlimit="8" stroke-linejoin="miter" fill="none" stroke="#404040" d="M 0 224712 C 0 100607 100606.8 0 224711.6 0 L 1083013 0 C 1207118 0 1307725 100607 1307725 224712 L 1307725 534552.1 C 1307725 658657.1 1207118 759264 1083013 759264 L 224711.6 759264 C 100606.8 759264 0 658657.1 0 534552.1 Z "/>
<symbol id="font_1_5">
<path d="M .46142579 .34960938 C .46142579 .5123698 .38378907 .59375 .22851563 .59375 L .11816406 .59375 L .11816406 .09423828 L .24365235 .09423828 C .31233726 .09423828 .36572267 .11653646 .4038086 .16113281 C .44222007 .20572917 .46142579 .2685547 .46142579 .34960938 M .5810547 .34960938 C .5810547 .27799479 .5677083 .21582031 .5410156 .16308594 C .51432296 .11035156 .47607423 .06998698 .42626954 .041992189 C .37679038 .0139973959 .3191732 0 .25341798 0 L 0 0 L 0 .6879883 L .23095703 .6879883 C .3448893 .6879883 .43164063 .6591797 .49121095 .6015625 C .55110678 .5439453 .5810547 .45996095 .5810547 .34960938 Z "/>
</symbol>
<symbol id="font_1_c">
<path d="M .1928711 .07910156 C .22770183 .07910156 .25520835 .091145839 .27539063 .115234378 C .2955729 .13964844 .30566407 .17089844 .30566407 .20898438 L .30566407 .25439454 L .2524414 .2524414 C .20458985 .25016276 .17008464 .24169922 .14892578 .22705078 C .12809246 .21240235 .11767578 .18945313 .11767578 .15820313 C .11767578 .10546875 .14274089 .07910156 .1928711 .07910156 M .41748048 .009765625 L .30908204 .009765625 L .30517579 .08886719 C .28857423 .056315107 .2685547 .033365888 .24511719 .020019532 C .22167969 .0066731774 .1928711 0 .1586914 0 C .10725912 0 .067871097 .0133463549 .040527345 .040039064 C .013509114 .06673177 0 .10384115 0 .15136719 C 0 .20345052 .018554688 .24332683 .055664064 .2709961 C .09277344 .29866538 .14746094 .3136393 .21972656 .31591798 L .30517579 .31884767 L .30517579 .33447267 C .30517579 .37320964 .29882813 .40120445 .2861328 .41845704 C .27376304 .43603517 .25260417 .44482423 .22265625 .44482423 C .19628906 .44482423 .17675781 .43977867 .1640625 .4296875 C .1516927 .41992188 .14322917 .4046224 .13867188 .38378907 L .030273438 .4008789 C .040039064 .44352214 .060384115 .4741211 .091308597 .49267579 C .122558597 .51123049 .16682942 .5205078 .2241211 .5205078 C .29085288 .5205078 .339681 .50472006 .37060548 .47314454 C .40185548 .441569 .41748048 .39257813 .41748048 .32617188 L .41748048 .009765625 Z "/>
</symbol>
<symbol id="font_1_19">
<path d="M .20019531 0 C .16113281 0 .13020833 .011230469 .107421878 .033691408 C .08496094 .055826826 .07373047 .08772787 .07373047 .12939453 L .07373047 .42773438 L 0 .42773438 L 0 .50927737 L .07519531 .50927737 L .110839847 .6303711 L .18554688 .6303711 L .18554688 .50927737 L .30615235 .50927737 L .30615235 .42773438 L .18554688 .42773438 L .18554688 .15771485 C .18554688 .10823568 .20654297 .083496097 .24853516 .083496097 C .26839195 .083496097 .28971354 .08561198 .3125 .08984375 L .3125 .0146484379 C .27539063 .0048828127 .23795574 0 .20019531 0 Z "/>
</symbol>
<symbol id="font_1_1">
<path d="M 0 0 Z "/>
</symbol>
<use xlink:href="#font_1_5" transform="matrix(27.777771,0,0,-27.777771,119.09843,77.75169)"/>
<use xlink:href="#font_1_c" transform="matrix(27.777771,0,0,-27.777771,137.88098,78.022968)"/>
<use xlink:href="#font_1_19" transform="matrix(27.777771,0,0,-27.777771,152.04384,77.995838)"/>
<use xlink:href="#font_1_c" transform="matrix(27.777771,0,0,-27.777771,162.51987,78.022968)"/>
<use xlink:href="#font_1_1" transform="matrix(27.777771,0,0,-27.777771,176.07239,76.666629)"/>
<symbol id="font_1_b">
<path d="M .48632813 .20361328 C .48632813 .13785808 .46533204 .087402347 .42333985 .052246095 C .3816732 .017415366 .32128907 0 .2421875 0 C .17252605 0 .11767578 .015136719 .07763672 .045410158 C .037923177 .075683597 .0120442709 .12141927 0 .18261719 L .11035156 .20166016 C .12630208 .12711589 .17220052 .08984375 .24804688 .08984375 C .33072917 .08984375 .3720703 .12548828 .3720703 .19677735 C .3720703 .21728516 .3680013 .23404949 .35986329 .24707031 C .35172526 .26009117 .34049479 .2709961 .32617188 .27978517 C .31184898 .28857423 .29492188 .29589845 .27539063 .3017578 C .2561849 .30794273 .23551433 .31429038 .2133789 .32080079 C .15999349 .33610026 .12125651 .35205079 .09716797 .36865235 C .073404949 .3852539 .05501302 .40608726 .041992189 .43115235 C .029296875 .45621745 .022949219 .48746745 .022949219 .52490237 C .022949219 .58251956 .04215495 .6274414 .080566409 .65966799 C .11897787 .69189456 .17236328 .7080078 .24072266 .7080078 C .3058268 .7080078 .35660807 .694987 .3930664 .6689453 C .42985026 .6432292 .45524089 .60270187 .46923829 .5473633 L .35742188 .52734377 C .34277345 .59016928 .3035482 .62158206 .2397461 .62158206 C .20686849 .62158206 .18147786 .61344406 .16357422 .59716799 C .1459961 .58121749 .13720703 .55891928 .13720703 .53027346 C .13720703 .5104167 .14111328 .49397788 .14892578 .48095704 C .1570638 .46826173 .16910808 .457194 .1850586 .4477539 C .20100911 .4383138 .23177083 .42659507 .27734376 .41259767 C .33072917 .3959961 .3688151 .38134767 .39160157 .36865235 C .41438804 .35628257 .43245445 .3424479 .44580079 .32714845 C .45914714 .31184898 .46923829 .29410807 .47607423 .27392579 C .48291017 .2537435 .48632813 .23030599 .48632813 .20361328 Z "/>
</symbol>
<symbol id="font_1_15">
<path d="M .5131836 .26123048 C .5131836 .17952474 .49039714 .1155599 .44482423 .06933594 C .3995768 .023111979 .3359375 0 .25390626 0 C .17447917 0 .11230469 .0234375 .06738281 .0703125 C .022460938 .1171875 0 .18082683 0 .26123048 C 0 .3429362 .022460938 .40657554 .06738281 .45214845 C .11263021 .49772135 .17578125 .5205078 .25683595 .5205078 C .34049479 .5205078 .40413413 .49820964 .4477539 .45361329 C .4913737 .40934245 .5131836 .34521485 .5131836 .26123048 M .3955078 .26123048 C .3955078 .3787435 .35009767 .4375 .25927735 .4375 C .1648763 .4375 .11767578 .3787435 .11767578 .26123048 C .11767578 .20361328 .12923177 .1595052 .15234375 .12890625 C .17545574 .09830729 .20898438 .08300781 .2529297 .08300781 C .34798179 .08300781 .3955078 .14241536 .3955078 .26123048 Z "/>
</symbol>
<symbol id="font_1_1a">
<path d="M .11230469 .5102539 L .11230469 .23046875 C .11230469 .1796875 .120279949 .14322917 .13623047 .12109375 C .15218099 .098958339 .17708333 .087890628 .2109375 .087890628 C .24739583 .087890628 .2763672 .10172526 .29785157 .12939453 C .31933595 .15738933 .33007813 .19628906 .33007813 .24609375 L .33007813 .5102539 L .4423828 .5102539 L .4423828 .12548828 C .4423828 .08642578 .44384767 .047851564 .44677735 .009765625 L .33984376 .009765625 C .33626304 .059244794 .33447267 .09147135 .33447267 .10644531 L .33251954 .10644531 C .31298829 .06803385 .2903646 .040690107 .26464845 .024414063 C .23925781 .0081380209 .20654297 0 .1665039 0 C .11116537 0 .069498699 .016438803 .041503908 .049316408 C .013834636 .08251953 0 .13330078 0 .20166016 L 0 .5102539 L .11230469 .5102539 Z "/>
</symbol>
<symbol id="font_1_17">
<path d="M .23583985 .41748048 C .19938152 .41748048 .17024739 .4013672 .1484375 .36914063 C .12662761 .3372396 .115722659 .29410807 .115722659 .2397461 L .115722659 0 L .0034179688 0 L .0034179688 .37695313 C .0034179688 .4296875 .0022786458 .47086589 0 .5004883 L .106933597 .5004883 C .110188808 .46142579 .111816409 .42366538 .111816409 .38720704 L .11376953 .38720704 C .12939453 .433431 .14746094 .46549479 .16796875 .48339845 C .18847656 .5016276 .2154948 .5107422 .24902344 .5107422 C .2643229 .5107422 .27701823 .5086263 .28710938 .50439456 L .28710938 .41210938 C .2705078 .4156901 .25341798 .41748048 .23583985 .41748048 Z "/>
</symbol>
<symbol id="font_1_d">
<path d="M .21484375 0 C .14615886 0 .09309896 .022460938 .055664064 .06738281 C .018554688 .11230469 0 .17561849 0 .25732423 C 0 .3413086 .019042969 .40608726 .057128908 .45166017 C .095214847 .4975586 .14908855 .5205078 .21875 .5205078 C .33235679 .5205078 .39746095 .46858726 .4140625 .3647461 L .3017578 .35546876 C .2981771 .38313804 .28889976 .4038086 .27392579 .41748048 C .25927735 .43147788 .24121094 .43847657 .21972656 .43847657 C .1829427 .43847657 .15592449 .42399089 .13867188 .39501954 C .12174479 .3660482 .11328125 .32177735 .11328125 .26220704 C .11328125 .20166016 .12207031 .15641277 .13964844 .12646485 C .15755208 .09651693 .1829427 .08154297 .21582031 .08154297 C .26497398 .08154297 .29427085 .11230469 .30371095 .17382813 L .41308595 .16210938 C .3955078 .054036458 .3294271 0 .21484375 0 Z "/>
</symbol>
<symbol id="font_1_12">
<path d="M 0 .61376956 L 0 .70996096 L .111816409 .70996096 L .111816409 .61376956 L 0 .61376956 M 0 0 L 0 .5004883 L .11230469 .5004883 L .11230469 0 L 0 0 Z "/>
</symbol>
<symbol id="font_1_14">
<path d="M .3334961 0 L .3334961 .27978517 C .3334961 .3305664 .32552085 .36702476 .3095703 .38916017 C .2939453 .41129557 .26904298 .42236329 .23486328 .42236329 C .19807942 .42236329 .16910808 .40820313 .14794922 .3798828 C .12711589 .3515625 .11669922 .31315104 .11669922 .26464845 L .11669922 0 L .0043945314 0 L .0043945314 .3852539 C .0043945314 .42399089 .0029296876 .46240235 0 .5004883 L .106933597 .5004883 C .11051432 .45166017 .11230469 .4194336 .11230469 .4038086 L .11425781 .4038086 C .13346355 .4412435 .15576172 .46842448 .18115235 .48535157 C .20654297 .5022786 .23925781 .5107422 .27929688 .5107422 C .33496095 .5107422 .3766276 .49430339 .40429688 .46142579 C .43229167 .4285482 .44628907 .37776695 .44628907 .30908204 L .44628907 0 L .3334961 0 Z "/>
</symbol>
<symbol id="font_1_11">
<path d="M 0 .44628907 C 0 .5289714 .018229166 .59244796 .0546875 .63671877 C .09147135 .68098959 .1438802 .703125 .21191406 .703125 C .24902344 .703125 .28157554 .69466146 .3095703 .6777344 C .33789063 .6611328 .359375 .63753256 .37402345 .6069336 L .37597657 .6069336 C .37597657 .6349284 .37809245 .663737 .38232423 .6933594 L .4897461 .6933594 C .48714195 .6640625 .48583985 .6269531 .48583985 .58203127 L .48583985 .20751953 C .48583985 .1508789 .46484376 .10221354 .42285157 .061523439 C .38085938 .020507813 .3211263 0 .24365235 0 C .115722659 0 .041829427 .044759115 .021972657 .13427735 L .13378906 .15136719 C .14615886 .10546875 .18391927 .08251953 .24707031 .08251953 C .28841148 .08251953 .31998698 .09488932 .34179688 .119628909 C .36360679 .14436849 .37451173 .17317708 .37451173 .20605469 L .37451173 .25878907 C .37451173 .26953126 .375 .28027345 .37597657 .29101563 L .37402345 .29101563 C .35709635 .25748698 .3346354 .23258464 .30664063 .2163086 C .27897135 .19970703 .24414063 .19140625 .20214844 .19140625 C .13704427 .19140625 .08707682 .21354167 .052246095 .2578125 C .017415366 .30208335 0 .36490885 0 .44628907 M .11767578 .44628907 C .11767578 .33170573 .15999349 .27441407 .2446289 .27441407 C .28727214 .27441407 .31966148 .28955079 .34179688 .31982423 C .36393229 .3504232 .375 .39339195 .375 .44873048 C .375 .50406906 .36393229 .5465495 .34179688 .5761719 C .31966148 .6061198 .28759767 .62109377 .24560547 .62109377 C .20491536 .62109377 .17333985 .6067708 .1508789 .578125 C .12874349 .5498047 .11767578 .5058594 .11767578 .44628907 Z "/>
</symbol>
<use xlink:href="#font_1_b" transform="matrix(27.777771,0,0,-27.777771,90.88782,114.022968)"/>
<use xlink:href="#font_1_15" transform="matrix(27.777771,0,0,-27.777771,106.58605,114.022968)"/>
<use xlink:href="#font_1_1a" transform="matrix(27.777771,0,0,-27.777771,123.958019,114.022968)"/>
<use xlink:href="#font_1_17" transform="matrix(27.777771,0,0,-27.777771,140.33138,113.75169)"/>
<use xlink:href="#font_1_d" transform="matrix(27.777771,0,0,-27.777771,149.97493,114.022968)"/>
<use xlink:href="#font_1_12" transform="matrix(27.777771,0,0,-27.777771,164.06456,113.75169)"/>
<use xlink:href="#font_1_14" transform="matrix(27.777771,0,0,-27.777771,171.22026,113.75169)"/>
<use xlink:href="#font_1_11" transform="matrix(27.777771,0,0,-27.777771,186.76625,119.10922)"/>
<path transform="matrix(2.7777777,0,0,-2.7777777,0,613.88888)" d="M 104.1861 189.3267 L 119.2064 189.3274 L 119.2063 191.0774 L 104.186 191.0767 Z M 113.6474 185.9463 L 120.9429 190.2024 L 113.647 194.4579 C 113.2296 194.7014 112.6938 194.5604 112.4503 194.1429 C 112.2068 193.7255 112.3479 193.1897 112.7653 192.9462 L 118.7655 189.4465 L 118.7654 190.9581 L 112.7656 187.4579 C 112.3481 187.2143 112.2072 186.6786 112.4507 186.2612 C 112.6942 185.8437 113.23 185.7028 113.6474 185.9463 Z " fill="#404040"/>
<path transform="matrix(2.7777777,0,0,-2.7777777,0,613.88888)" d="M 104.1852 111.7396 L 119.2064 111.7395 L 119.2064 109.9895 L 104.1852 109.9896 Z M 113.6473 115.1203 L 120.9429 110.8645 L 113.6473 106.6087 C 113.2298 106.3652 112.6941 106.5062 112.4506 106.9236 C 112.2071 107.3411 112.3481 107.8768 112.7655 108.1203 L 118.7655 111.6203 L 118.7655 110.1087 L 112.7655 113.6087 C 112.3481 113.8522 112.2071 114.388 112.4506 114.8054 C 112.6941 115.2228 113.2299 115.3638 113.6473 115.1203 Z " fill="#404040"/>
<path transform="matrix(2.7777777,0,0,-2.7777777,0,613.88888)" d="M 51.88681 53.66134 L 53.13956 59.81501 L 51.6697 60.11424 L 50.41696 53.96057 Z M 55.34757 53.62809 L 52.70156 61.42318 L 47.21864 55.28295 C 46.94275 54.97399 46.96956 54.49988 47.27853 54.22399 C 47.58749 53.9481 48.06161 53.97491 48.3375 54.28387 L 52.96406 59.46508 L 51.69443 59.72355 L 53.92718 53.14595 C 54.06032 52.75371 54.48622 52.54368 54.87845 52.67682 C 55.27068 52.80996 55.48072 53.23586 55.34757 53.62809 Z " fill="#404040"/>
<path transform="matrix(2.7777777,0,0,-2.7777777,0,613.88888)" d="M 104.1909 30.65227 L 119.2112 30.73522 L 119.2015 32.48519 L 104.1812 32.40224 Z M 113.6708 27.32376 L 120.9429 31.6198 L 113.6238 35.83525 C 113.205 36.07643 112.6701 35.93248 112.4289 35.51372 C 112.1877 35.09497 112.3316 34.55997 112.7504 34.31879 L 118.7696 30.85198 L 118.7613 32.36357 L 112.7807 28.83049 C 112.3646 28.58469 112.2266 28.04814 112.4724 27.63207 C 112.7182 27.216 113.2547 27.07797 113.6708 27.32376 Z " fill="#404040"/>
<path transform="matrix(2.7777777,0,0,-2.7777777,0,613.88888)" d="M 120.9391 202.4 C 120.9391 212.172 128.8608 220.0939 138.6329 220.0939 L 206.2157 220.0939 C 215.9877 220.0939 223.9095 212.172 223.9095 202.4 L 223.9095 178.0031 C 223.9095 168.2311 215.9877 160.3093 206.2157 160.3093 L 138.6329 160.3093 C 128.8608 160.3093 120.9391 168.2311 120.9391 178.0031 Z " fill="#fef6ef"/>
<path transform="matrix(.00021872265,0,0,.00021872265,335.94194,2.5169373)" stroke-width="22225" stroke-linecap="butt" stroke-miterlimit="8" stroke-linejoin="miter" fill="none" stroke="#404040" d="M 0 224712 C 0 100607 100606.8 0 224711.6 0 L 1083013 0 C 1207118 0 1307725 100607 1307725 224712 L 1307725 534552.1 C 1307725 658657.2 1207118 759264.1 1083013 759264.1 L 224711.6 759264.1 C 100606.8 759264.1 0 658657.2 0 534552.1 Z "/>
<use xlink:href="#font_1_5" transform="matrix(27.777771,0,0,-27.777771,451.656,77.75169)"/>
<use xlink:href="#font_1_c" transform="matrix(27.777771,0,0,-27.777771,470.43858,78.022968)"/>
<use xlink:href="#font_1_19" transform="matrix(27.777771,0,0,-27.777771,484.60145,77.995838)"/>
<use xlink:href="#font_1_c" transform="matrix(27.777771,0,0,-27.777771,495.07746,78.022968)"/>
<symbol id="font_1_f">
<path d="M .11767578 .23876953 C .11930338 .18766277 .13053386 .14827474 .15136719 .12060547 C .17252605 .09326172 .20133464 .079589847 .23779297 .079589847 C .26253257 .079589847 .28450523 .08577474 .30371095 .09814453 C .3232422 .11051432 .3408203 .13134766 .3564453 .16064453 L .44482423 .11816406 C .4256185 .087239589 .40641276 .063802089 .38720704 .047851564 C .3680013 .031901044 .34554038 .020019532 .31982423 .012207031 C .2944336 .0040690104 .26416017 0 .2290039 0 C .15576172 0 .09928385 .022949219 .059570314 .068847659 C .019856772 .11507162 0 .17985027 0 .2631836 C 0 .34716798 .020833334 .41097007 .0625 .45458985 C .104166667 .49853517 .16097005 .5205078 .23291016 .5205078 C .30419923 .5205078 .35872398 .4970703 .39648438 .4501953 C .43424479 .40364585 .453125 .33772788 .453125 .2524414 L .453125 .23876953 L .11767578 .23876953 M .2290039 .4428711 C .1961263 .4428711 .16992188 .43115235 .15039063 .40771485 C .13085938 .38427735 .120279949 .35188804 .118652347 .31054688 L .33642579 .31054688 C .33317057 .35481773 .32307945 .38785807 .30615235 .40966798 C .28922526 .43180339 .26350913 .4428711 .2290039 .4428711 Z "/>
</symbol>
<symbol id="font_1_e">
<path d="M .11669922 .2602539 C .11669922 .14111328 .15820313 .08154297 .24121094 .08154297 C .28515626 .08154297 .31852214 .09667969 .3413086 .12695313 C .36409507 .15755208 .37548829 .20182292 .37548829 .25976563 C .37548829 .31770835 .3642578 .36165367 .34179688 .39160157 C .31933595 .421875 .28629557 .43701173 .24267578 .43701173 C .1586914 .43701173 .11669922 .37809245 .11669922 .2602539 M 0 .25878907 C 0 .33984376 .018880209 .40348307 .056640626 .44970704 C .09440104 .4962565 .14746094 .51953127 .21582031 .51953127 C .2529297 .51953127 .2841797 .5126953 .3095703 .49902345 C .33496095 .48535157 .3564453 .46289063 .37402345 .43164063 L .37597657 .43164063 C .37532554 .44466148 .37467448 .45751954 .37402345 .47021485 C .3736979 .4832357 .37353517 .4962565 .37353517 .50927737 L .37353517 .71875 L .48632813 .71875 L .48632813 .12060547 C .48632813 .08642578 .48763023 .049153646 .49023438 .0087890629 L .3803711 .0087890629 C .379069 .013671875 .37776695 .026855469 .37646485 .048339845 C .37516276 .06982422 .37451173 .08479818 .37451173 .09326172 L .3725586 .09326172 C .339681 .03108724 .28645835 0 .21289063 0 C .14485677 0 .092285159 .022135416 .05517578 .06640625 C .018391928 .110677089 0 .17480469 0 .25878907 Z "/>
</symbol>
<symbol id="font_1_16">
<path d="M .4897461 .4453125 C .4897461 .36328126 .47054038 .29899089 .4321289 .2524414 C .39404298 .20589192 .34098307 .18261719 .27294923 .18261719 C .23388672 .18261719 .20182292 .19010417 .17675781 .20507813 C .1516927 .22005208 .13167317 .24186199 .11669922 .2705078 L .11425781 .2705078 C .11490885 .25748698 .11539713 .2446289 .115722659 .2319336 C .116373699 .21923828 .11669922 .2063802 .11669922 .19335938 L .11669922 0 L .00390625 0 L .00390625 .58154299 C .00390625 .61539718 .0026041668 .65250656 0 .6928711 L .10839844 .6928711 C .11263021 .6590169 .114746097 .6306966 .114746097 .60791018 L .11669922 .60791018 C .14794922 .6713867 .20279949 .703125 .28125 .703125 C .3486328 .703125 .40022788 .68082687 .43603517 .63623049 C .47184245 .59195968 .4897461 .5283203 .4897461 .4453125 M .3725586 .44433595 C .3725586 .56152346 .33138023 .6201172 .24902344 .6201172 C .20507813 .6201172 .17171224 .60498049 .14892578 .57470706 C .12613933 .5444336 .114746097 .5004883 .114746097 .4428711 C .114746097 .3852539 .1258138 .3413086 .14794922 .31103517 C .17008464 .28076173 .203125 .265625 .24707031 .265625 C .33072917 .265625 .3725586 .3251953 .3725586 .44433595 Z "/>
</symbol>
<symbol id="font_1_13">
<path d="M 0 0 L 0 .70996096 L .11230469 .70996096 L .11230469 0 L 0 0 Z "/>
</symbol>
<use xlink:href="#font_1_5" transform="matrix(27.777771,0,0,-27.777771,392.28105,113.75169)"/>
<use xlink:href="#font_1_f" transform="matrix(27.777771,0,0,-27.777771,411.2128,114.022968)"/>
<use xlink:href="#font_1_e" transform="matrix(27.777771,0,0,-27.777771,426.11589,113.995838)"/>
<use xlink:href="#font_1_1a" transform="matrix(27.777771,0,0,-27.777771,443.84898,114.022968)"/>
<use xlink:href="#font_1_16" transform="matrix(27.777771,0,0,-27.777771,460.22236,119.09566)"/>
<use xlink:href="#font_1_13" transform="matrix(27.777771,0,0,-27.777771,477.3722,113.75169)"/>
<use xlink:href="#font_1_12" transform="matrix(27.777771,0,0,-27.777771,484.64997,113.75169)"/>
<use xlink:href="#font_1_d" transform="matrix(27.777771,0,0,-27.777771,491.03254,114.022968)"/>
<use xlink:href="#font_1_c" transform="matrix(27.777771,0,0,-27.777771,504.09138,114.022968)"/>
<use xlink:href="#font_1_19" transform="matrix(27.777771,0,0,-27.777771,518.2542,113.995838)"/>
<use xlink:href="#font_1_12" transform="matrix(27.777771,0,0,-27.777771,529.76107,113.75169)"/>
<use xlink:href="#font_1_15" transform="matrix(27.777771,0,0,-27.777771,536.1436,114.022968)"/>
<use xlink:href="#font_1_14" transform="matrix(27.777771,0,0,-27.777771,553.58346,113.75169)"/>
<path transform="matrix(2.7777777,0,0,-2.7777777,0,613.88888)" d="M 120.9391 123.063 C 120.9391 132.835 128.8609 140.7568 138.633 140.7568 L 206.2158 140.7568 C 215.9878 140.7568 223.9096 132.835 223.9096 123.063 L 223.9096 98.66614 C 223.9096 88.89409 215.9878 80.97228 206.2158 80.97228 L 138.633 80.97228 C 128.8609 80.97228 120.9391 88.89409 120.9391 98.66614 Z " fill="#fce6d6"/>
<path transform="matrix(.00021872265,0,0,.00021872265,335.94194,222.89775)" stroke-width="22225" stroke-linecap="butt" stroke-miterlimit="8" stroke-linejoin="miter" fill="none" stroke="#404040" d="M 0 224712 C 0 100607 100606.8 0 224711.6 0 L 1083013 0 C 1207118 0 1307725 100607 1307725 224712 L 1307725 534552.1 C 1307725 658657.1 1207118 759264 1083013 759264 L 224711.6 759264 C 100606.8 759264 0 658657.1 0 534552.1 Z "/>
<symbol id="font_1_8">
<path d="M 0 0 L 0 .6879883 L .118652347 .6879883 L .118652347 .40478517 L .44970704 .40478517 L .44970704 .6879883 L .56396487 .6879883 L .56396487 0 L .44970704 0 L .44970704 .30615235 L .118652347 .30615235 L .118652347 0 L 0 0 Z "/>
</symbol>
<symbol id="font_1_18">
<path d="M .3779297 .1538086 C .3779297 .10563151 .36149089 .06803385 .32861329 .041015626 C .2960612 .013671875 .25032554 0 .19140625 0 C .13020833 0 .08528646 .009602864 .056640626 .028808594 C .027994791 .048014326 .009114583 .078938808 0 .12158203 L .09667969 .13671875 C .10123698 .11425781 .110839847 .09814453 .12548828 .088378909 C .14046224 .07861328 .16178386 .07373047 .18945313 .07373047 C .21451824 .07373047 .23470052 .07910156 .25 .08984375 C .265625 .10058594 .2734375 .118001308 .2734375 .14208985 C .2734375 .15673828 .27001954 .16878255 .2631836 .17822266 C .25634767 .18798828 .24609375 .19628906 .23242188 .203125 C .21907552 .21028646 .1928711 .21907552 .1538086 .22949219 C .118001308 .2389323 .091308597 .24951172 .07373047 .26123048 C .056477865 .27327476 .04313151 .2882487 .033691408 .30615235 C .024251303 .3243815 .01953125 .3466797 .01953125 .37304688 C .01953125 .41959635 .034016927 .45572917 .06298828 .4814453 C .092285159 .507487 .13492839 .5205078 .19091797 .5205078 C .24267578 .5205078 .2823893 .51090499 .3100586 .49169923 C .33805339 .472819 .3556315 .4436849 .36279298 .40429688 L .26513673 .39404298 C .261556 .4132487 .25358073 .4267578 .24121094 .4345703 C .22916667 .4423828 .21272786 .44628907 .19189453 .44628907 C .1459961 .44628907 .123046878 .42610679 .123046878 .3857422 C .123046878 .37272135 .1258138 .36197917 .13134766 .35351563 C .13720703 .3450521 .14550781 .33772788 .15625 .33154298 C .1673177 .3256836 .19222005 .31722007 .23095703 .30615235 C .27360026 .29410807 .3038737 .28190104 .32177735 .26953126 C .339681 .25748698 .35351563 .2421875 .36328126 .22363281 C .37304688 .20507813 .3779297 .18180339 .3779297 .1538086 Z "/>
</symbol>
<use xlink:href="#font_1_8" transform="matrix(27.777771,0,0,-27.777771,425.25358,298.4184)"/>
<use xlink:href="#font_1_f" transform="matrix(27.777771,0,0,-27.777771,444.5461,298.68965)"/>
<use xlink:href="#font_1_1a" transform="matrix(27.777771,0,0,-27.777771,460.16838,298.68965)"/>
<use xlink:href="#font_1_17" transform="matrix(27.777771,0,0,-27.777771,476.55567,298.4184)"/>
<use xlink:href="#font_1_12" transform="matrix(27.777771,0,0,-27.777771,487.10829,298.4184)"/>
<use xlink:href="#font_1_18" transform="matrix(27.777771,0,0,-27.777771,492.9622,298.68965)"/>
<use xlink:href="#font_1_19" transform="matrix(27.777771,0,0,-27.777771,505.10145,298.66255)"/>
<use xlink:href="#font_1_12" transform="matrix(27.777771,0,0,-27.777771,516.62216,298.4184)"/>
<use xlink:href="#font_1_d" transform="matrix(27.777771,0,0,-27.777771,523.0186,298.68965)"/>
<use xlink:href="#font_1_1" transform="matrix(27.777771,0,0,-27.777771,535.0605,297.3333)"/>
<symbol id="font_1_6">
<path d="M .118652347 0 L 0 0 L 0 .6879883 L .38378907 .6879883 L .38378907 .59277346 L .118652347 .59277346 L .118652347 .38427735 L .3725586 .38427735 L .3725586 .2919922 L .118652347 .2919922 L .118652347 0 Z "/>
</symbol>
<use xlink:href="#font_1_6" transform="matrix(27.777771,0,0,-27.777771,428.89277,334.4184)"/>
<use xlink:href="#font_1_12" transform="matrix(27.777771,0,0,-27.777771,442.81694,334.4184)"/>
<use xlink:href="#font_1_13" transform="matrix(27.777771,0,0,-27.777771,450.10859,334.4184)"/>
<use xlink:href="#font_1_19" transform="matrix(27.777771,0,0,-27.777771,455.94895,334.66255)"/>
<use xlink:href="#font_1_f" transform="matrix(27.777771,0,0,-27.777771,466.58808,334.68965)"/>
<use xlink:href="#font_1_17" transform="matrix(27.777771,0,0,-27.777771,482.27818,334.4184)"/>
<use xlink:href="#font_1_12" transform="matrix(27.777771,0,0,-27.777771,492.80305,334.4184)"/>
<use xlink:href="#font_1_14" transform="matrix(27.777771,0,0,-27.777771,499.97264,334.4184)"/>
<use xlink:href="#font_1_11" transform="matrix(27.777771,0,0,-27.777771,515.5325,339.7759)"/>
<path transform="matrix(2.7777777,0,0,-2.7777777,0,613.88888)" d="M 1.215748 123.0632 C 1.215748 132.8351 9.137465 140.7568 18.9094 140.7568 L 86.49154 140.7568 C 96.26348 140.7568 104.1852 132.8351 104.1852 123.0632 L 104.1852 98.66662 C 104.1852 88.89468 96.26348 80.97296 86.49154 80.97296 L 18.9094 80.97296 C 9.137465 80.97296 1.215748 88.89468 1.215748 98.66662 Z " fill="#eceded"/>
<path transform="matrix(.00021872265,0,0,.00021872265,3.3770776,222.89775)" stroke-width="22225" stroke-linecap="butt" stroke-miterlimit="8" stroke-linejoin="miter" fill="none" stroke="#404040" d="M 0 224709.4 C 0 100605.8 100605.8 0 224709.4 0 L 1083003 0 C 1207106 0 1307712 100605.8 1307712 224709.4 L 1307712 534546 C 1307712 658649.6 1207106 759255.4 1083003 759255.4 L 224709.4 759255.4 C 100605.8 759255.4 0 658649.6 0 534546 Z "/>
<symbol id="font_1_a">
<path d="M .3725586 .48583985 C .3725586 .5236003 .3601888 .5524089 .33544923 .5722656 C .31070964 .5921224 .27555339 .6020508 .22998047 .6020508 L .118652347 .6020508 L .118652347 .3647461 L .23388672 .3647461 C .277181 .3647461 .31103517 .37532554 .33544923 .39648438 C .3601888 .41796876 .3725586 .4477539 .3725586 .48583985 M .49121095 .4868164 C .49121095 .43798829 .47721354 .39648438 .44921876 .3623047 C .42154948 .328125 .38232423 .30533854 .33154298 .2939453 L .52246096 0 L .38720704 0 L .21875 .28027345 L .118652347 .28027345 L .118652347 0 L 0 0 L 0 .6879883 L .24169922 .6879883 C .3214518 .6879883 .38297526 .67041018 .42626954 .6352539 C .4695638 .60042318 .49121095 .55094406 .49121095 .4868164 Z "/>
</symbol>
<symbol id="font_1_1b">
<path d="M .13720703 0 L 0 .5004883 L .10888672 .5004883 L .18310547 .20751953 C .18733724 .19026692 .19124349 .17203777 .19482422 .15283203 C .19840496 .1336263 .20182292 .11360677 .20507813 .09277344 C .21321614 .12662761 .2195638 .15332031 .2241211 .17285156 C .2290039 .19238281 .2591146 .30159507 .31445313 .5004883 L .43115235 .5004883 L .51171877 .2109375 C .51985678 .18261719 .5291341 .1430664 .5395508 .092285159 C .54215499 .10530599 .5452474 .11930338 .5488281 .13427735 C .5524089 .14957683 .58235678 .27164714 .6386719 .5004883 L .74658206 .5004883 L .6044922 0 L .47802735 0 L .39892579 .2915039 C .3943685 .30680339 .3894857 .32617188 .38427735 .34960938 C .379069 .3733724 .37532554 .39339195 .37304688 .40966798 C .3658854 .3663737 .35725913 .32714845 .34716798 .2919922 L .26513673 0 L .13720703 0 Z "/>
</symbol>
<use xlink:href="#font_1_a" transform="matrix(27.777771,0,0,-27.777771,101.02067,298.4184)"/>
<use xlink:href="#font_1_f" transform="matrix(27.777771,0,0,-27.777771,117.1882,298.68965)"/>
<use xlink:href="#font_1_1b" transform="matrix(27.777771,0,0,-27.777771,131.04756,298.4184)"/>
<use xlink:href="#font_1_c" transform="matrix(27.777771,0,0,-27.777771,153.17789,298.68965)"/>
<use xlink:href="#font_1_17" transform="matrix(27.777771,0,0,-27.777771,168.66997,298.4184)"/>
<use xlink:href="#font_1_e" transform="matrix(27.777771,0,0,-27.777771,178.3135,298.66255)"/>
<use xlink:href="#font_1_5" transform="matrix(27.777771,0,0,-27.777771,104.85368,334.4184)"/>
<use xlink:href="#font_1_f" transform="matrix(27.777771,0,0,-27.777771,123.78543,334.68965)"/>
<use xlink:href="#font_1_18" transform="matrix(27.777771,0,0,-27.777771,138.146,334.68965)"/>
<use xlink:href="#font_1_12" transform="matrix(27.777771,0,0,-27.777771,151.7226,334.4184)"/>
<use xlink:href="#font_1_11" transform="matrix(27.777771,0,0,-27.777771,158.11876,339.7759)"/>
<use xlink:href="#font_1_14" transform="matrix(27.777771,0,0,-27.777771,175.90608,334.4184)"/>
<path transform="matrix(2.7777777,0,0,-2.7777777,0,613.88888)" d="M 120.9391 43.81843 C 120.9391 53.59048 128.8608 61.51228 138.6329 61.51228 L 206.2157 61.51228 C 215.9877 61.51228 223.9095 53.59048 223.9095 43.81843 L 223.9095 19.42157 C 223.9095 9.649525 215.9877 1.727717 206.2157 1.727717 L 138.6329 1.727717 C 128.8608 1.727717 120.9391 9.649525 120.9391 19.42157 Z " fill="#dbe3f4"/>
<path transform="matrix(.00021872265,0,0,.00021872265,335.94194,443.02143)" stroke-width="22225" stroke-linecap="butt" stroke-miterlimit="8" stroke-linejoin="miter" fill="none" stroke="#404040" d="M 0 224712 C 0 100607 100606.8 0 224711.6 0 L 1083013 0 C 1207118 0 1307725 100607 1307725 224712 L 1307725 534552.1 C 1307725 658657.1 1207118 759264 1083013 759264 L 224711.6 759264 C 100606.8 759264 0 658657.1 0 534552.1 Z "/>
<symbol id="font_1_7">
<path d="M .31396485 0 C .21435547 0 .13704427 .03125 .08203125 .09375 C .02734375 .15657552 0 .24430339 0 .3569336 C 0 .47021485 .026855469 .5569661 .080566409 .6171875 C .13427735 .6777344 .2109375 .7080078 .31054688 .7080078 C .37923179 .7080078 .43570964 .69433596 .47998048 .6669922 C .5242513 .63997396 .5566406 .5986328 .57714846 .54296877 L .46777345 .5097656 C .4423828 .57877609 .3894857 .61328127 .30908204 .61328127 C .24723308 .61328127 .20019531 .5911458 .16796875 .546875 C .1360677 .5029297 .12011719 .43961589 .12011719 .3569336 C .12011719 .2742513 .13720703 .20979817 .17138672 .16357422 C .20589192 .11735026 .2537435 .09423828 .3149414 .09423828 C .37841798 .09423828 .4313151 .11442057 .4736328 .15478516 L .4736328 .2758789 L .31152345 .2758789 L .31152345 .36328126 L .58496096 .36328126 L .58496096 .11230469 C .5546875 .078125 .5154622 .05094401 .46728517 .030761719 C .41910807 .010253906 .3680013 0 .31396485 0 Z "/>
</symbol>
<use xlink:href="#font_1_7" transform="matrix(27.777771,0,0,-27.777771,415.59648,535.35629)"/>
<symbol id="font_2_2">
<path d="M .27294923 0 C .18408203 0 .116373699 .022460938 .06982422 .06738281 C .02327474 .11230469 0 .17773438 0 .26367188 L 0 .6977539 L .118652347 .6977539 L .118652347 .27246095 C .118652347 .21582031 .13248699 .171875 .16015625 .140625 C .18815105 .10970052 .22688802 .09423828 .2763672 .09423828 C .32877604 .09423828 .3688151 .11035156 .39648438 .14257813 C .42415367 .17480469 .43798829 .22005208 .43798829 .2783203 L .43798829 .6977539 L .55615237 .6977539 L .55615237 .27148438 C .55615237 .18391927 .5317383 .11669922 .48291017 .06982422 C .43440757 .02327474 .36442057 0 .27294923 0 Z "/>
</symbol>
<symbol id="font_2_1">
<path d="M .3725586 .48583985 C .3725586 .5236003 .3601888 .5524089 .33544923 .5722656 C .31070964 .5921224 .27555339 .6020508 .22998047 .6020508 L .118652347 .6020508 L .118652347 .3647461 L .23388672 .3647461 C .277181 .3647461 .31103517 .37532554 .33544923 .39648438 C .3601888 .41796876 .3725586 .4477539 .3725586 .48583985 M .49121095 .4868164 C .49121095 .43798829 .47721354 .39648438 .44921876 .3623047 C .42154948 .328125 .38232423 .30533854 .33154298 .2939453 L .52246096 0 L .38720704 0 L .21875 .28027345 L .118652347 .28027345 L .118652347 0 L 0 0 L 0 .6879883 L .24169922 .6879883 C .3214518 .6879883 .38297526 .67041018 .42626954 .6352539 C .4695638 .60042318 .49121095 .55094406 .49121095 .4868164 Z "/>
</symbol>
<use xlink:href="#font_2_2" transform="matrix(24.999999,0,0,-24.999999,435.47496,535.22067)"/>
<use xlink:href="#font_2_1" transform="matrix(24.999999,0,0,-24.999999,452.44764,534.9765)"/>
<use xlink:href="#font_2_2" transform="matrix(24.999999,0,0,-24.999999,466.73497,535.22067)"/>
<symbol id="font_1_2">
<path d="M 0 0 L 0 .09863281 L .28271485 .09863281 L .28271485 0 L 0 0 Z "/>
</symbol>
<use xlink:href="#font_1_2" transform="matrix(27.777771,0,0,-27.777771,484.57164,529.4291)"/>
<symbol id="font_1_4">
<path d="M .46777345 .36621095 C .46777345 .24511719 .4464518 .1538086 .4038086 .092285159 C .36149089 .030761719 .29866538 0 .21533203 0 C .15804036 0 .11279297 .012369792 .079589847 .037109376 C .04638672 .061523439 .022786459 .098958339 .0087890629 .14941406 L .114746097 .16552735 C .1303711 .11442057 .16471355 .08886719 .21777344 .08886719 C .3076172 .08886719 .35416667 .17041016 .35742188 .3334961 C .34407554 .308431 .32307945 .28857423 .2944336 .27392579 C .26611329 .25960288 .234375 .2524414 .19921875 .2524414 C .13802083 .2524414 .08951823 .2726237 .053710939 .31298829 C .017903647 .35367839 0 .40966798 0 .48095704 C 0 .5525716 .020182291 .60823568 .060546876 .6479492 C .10091146 .6879883 .15787761 .7080078 .23144531 .7080078 C .31022135 .7080078 .36930339 .6798503 .4086914 .62353518 C .44807945 .5675456 .46777345 .48177085 .46777345 .36621095 M .3486328 .45996095 C .3486328 .507487 .33789063 .54589846 .31640626 .5751953 C .29492188 .6044922 .265625 .6191406 .22851563 .6191406 C .19173177 .6191406 .1632487 .6069336 .1430664 .58251956 C .12320963 .55810549 .11328125 .5239258 .11328125 .47998048 C .11328125 .43538413 .1233724 .40055339 .14355469 .37548829 C .1640625 .3507487 .19238281 .3383789 .22851563 .3383789 C .26334635 .3383789 .2919922 .34944663 .31445313 .37158204 C .3372396 .39371745 .3486328 .4231771 .3486328 .45996095 Z "/>
</symbol>
<symbol id="font_1_3">
<path d="M 0 0 L 0 .07861328 C .016276041 .116373699 .03938802 .15348308 .06933594 .1899414 C .09928385 .22639974 .13932292 .26546226 .18945313 .3071289 C .24967449 .35725913 .28938804 .3959961 .30859376 .42333985 C .328125 .4506836 .33789063 .47721354 .33789063 .5029297 C .33789063 .5361328 .32861329 .5616862 .3100586 .57958987 C .2915039 .59781906 .26529948 .6069336 .23144531 .6069336 C .16634114 .6069336 .12923177 .5719401 .12011719 .5019531 L .0068359377 .5097656 C .013671875 .56901046 .036295576 .6152344 .07470703 .6484375 C .11344401 .6816406 .1648763 .6982422 .2290039 .6982422 C .2993164 .6982422 .3540039 .68147787 .3930664 .6479492 C .43245445 .6147461 .45214845 .5677083 .45214845 .50683596 C .45214845 .4781901 .4464518 .45133464 .4350586 .42626954 C .42399089 .40152995 .4078776 .37695313 .38671876 .35253907 C .3655599 .32845054 .3310547 .29720054 .28320313 .25878907 C .1998698 .19270833 .14794922 .13785808 .1274414 .09423828 L .46289063 .09423828 L .46289063 0 L 0 0 Z "/>
</symbol>
<symbol id="font_1_9">
<path d="M .3852539 0 L .18359375 .31445313 L .118652347 .25146485 L .118652347 0 L 0 0 L 0 .6879883 L .118652347 .6879883 L .118652347 .3701172 L .36523438 .6879883 L .50634768 .6879883 L .2709961 .39160157 L .5288086 0 L .3852539 0 Z "/>
</symbol>
<use xlink:href="#font_1_4" transform="matrix(27.777771,0,0,-27.777771,496.5616,535.35629)"/>
<use xlink:href="#font_1_3" transform="matrix(27.777771,0,0,-27.777771,512.3358,535.085)"/>
<use xlink:href="#font_1_9" transform="matrix(27.777771,0,0,-27.777771,529.08657,535.085)"/>
<path transform="matrix(2.7777777,0,0,-2.7777777,0,613.88888)" d="M 1.215827 43.72591 C 1.215827 53.49796 9.137623 61.41976 18.90965 61.41976 L 86.49247 61.41976 C 96.2645 61.41976 104.1863 53.49796 104.1863 43.72591 L 104.1863 19.32905 C 104.1863 9.557005 96.2645 1.635197 86.49247 1.635197 L 18.90965 1.635197 C 9.137623 1.635197 1.215827 9.557005 1.215827 19.32905 Z " fill="#f1f5fc"/>
<path transform="matrix(.00021872265,0,0,.00021872265,3.3772972,443.2784)" stroke-width="22225" stroke-linecap="butt" stroke-miterlimit="8" stroke-linejoin="miter" fill="none" stroke="#404040" d="M 0 224712 C 0 100607 100606.8 0 224711.6 0 L 1083013 0 C 1207118 0 1307725 100607 1307725 224712 L 1307725 534552.1 C 1307725 658657.1 1207118 759264 1083013 759264 L 224711.6 759264 C 100606.8 759264 0 658657.1 0 534552.1 Z "/>
<symbol id="font_1_10">
<path d="M .20019531 .4189453 L .20019531 0 L .087890628 0 L .087890628 .4189453 L 0 .4189453 L 0 .5004883 L .087890628 .5004883 L .087890628 .56347659 C .087890628 .6142578 .10058594 .6516927 .12597656 .67578127 C .15136719 .7001953 .1899414 .71240237 .24169922 .71240237 C .27555339 .71240237 .30452476 .71028646 .32861329 .7060547 L .32861329 .6308594 C .31429038 .6344401 .29296876 .63623049 .26464845 .63623049 C .24186199 .63623049 .22542317 .6298828 .21533203 .6171875 C .20524089 .6048177 .20019531 .58170577 .20019531 .54785159 L .20019531 .5004883 L .30859376 .5004883 L .30859376 .4189453 L .20019531 .4189453 Z "/>
</symbol>
<symbol id="font_1_1c">
<path d="M .10888672 0 C .08805338 0 .06656901 .0022786458 .044433595 .0068359377 L .044433595 .09423828 C .061360677 .09000651 .07600912 .087890628 .088378909 .087890628 C .10563151 .087890628 .12076823 .091796878 .13378906 .099609378 C .14680989 .10709635 .15836589 .11816406 .16845703 .1328125 C .17854817 .14713542 .18684896 .16015625 .19335938 .171875 L .2006836 .1899414 L 0 .6933594 L .119628909 .6933594 L .2133789 .4272461 C .22347005 .3995768 .23828125 .3531901 .2578125 .28808595 C .26334635 .30891929 .27652995 .34977214 .29736329 .41064454 L .39208985 .6933594 L .5102539 .6933594 L .30664063 .16259766 C .28645835 .11279297 .26090495 .07324219 .22998047 .043945314 C .19905599 .0146484379 .1586914 0 .10888672 0 Z "/>
</symbol>
<use xlink:href="#font_1_5" transform="matrix(27.777771,0,0,-27.777771,91.14009,518.4183)"/>
<use xlink:href="#font_1_12" transform="matrix(27.777771,0,0,-27.777771,110.95345,518.4183)"/>
<use xlink:href="#font_1_10" transform="matrix(27.777771,0,0,-27.777771,116.84777,518.4183)"/>
<use xlink:href="#font_1_10" transform="matrix(27.777771,0,0,-27.777771,126.569988,518.4183)"/>
<use xlink:href="#font_1_12" transform="matrix(27.777771,0,0,-27.777771,137.67568,518.4183)"/>
<use xlink:href="#font_1_d" transform="matrix(27.777771,0,0,-27.777771,144.05826,518.6895)"/>
<use xlink:href="#font_1_1a" transform="matrix(27.777771,0,0,-27.777771,157.95801,518.6895)"/>
<use xlink:href="#font_1_13" transform="matrix(27.777771,0,0,-27.777771,174.45345,518.4183)"/>
<use xlink:href="#font_1_19" transform="matrix(27.777771,0,0,-27.777771,180.27994,518.6624)"/>
<use xlink:href="#font_1_1c" transform="matrix(27.777771,0,0,-27.777771,189.69802,523.7758)"/>
<use xlink:href="#font_1_6" transform="matrix(27.777771,0,0,-27.777771,96.33487,555.085)"/>
<use xlink:href="#font_1_12" transform="matrix(27.777771,0,0,-27.777771,110.25902,555.085)"/>
<use xlink:href="#font_1_13" transform="matrix(27.777771,0,0,-27.777771,117.55069,555.085)"/>
<use xlink:href="#font_1_19" transform="matrix(27.777771,0,0,-27.777771,123.391078,555.32919)"/>
<use xlink:href="#font_1_f" transform="matrix(27.777771,0,0,-27.777771,134.03017,555.35629)"/>
<use xlink:href="#font_1_17" transform="matrix(27.777771,0,0,-27.777771,149.72028,555.085)"/>
<use xlink:href="#font_1_12" transform="matrix(27.777771,0,0,-27.777771,160.24514,555.085)"/>
<use xlink:href="#font_1_14" transform="matrix(27.777771,0,0,-27.777771,167.41472,555.085)"/>
<use xlink:href="#font_1_11" transform="matrix(27.777771,0,0,-27.777771,182.97463,560.44259)"/>
<path transform="matrix(2.7777777,0,0,-2.7777777,0,613.88888)" d="M 173.2991 160.3109 L 173.2991 149.6588 L 52.70047 149.6588 L 53.57547 150.5338 L 53.57547 145.7569 L 51.82547 145.7569 L 51.82547 151.4088 L 172.4241 151.4088 L 171.5491 150.5338 L 171.5491 160.3109 Z M 55.70047 146.7569 L 52.70047 140.7569 L 49.70047 146.7569 Z " fill="#404040"/>
<path transform="matrix(2.7777777,0,0,-2.7777777,0,613.88888)" d="M 173.2994 80.97232 L 173.2994 70.32028 L 52.70114 70.32028 L 53.57614 71.19528 L 53.57614 66.41836 L 51.82614 66.41836 L 51.82614 72.07028 L 172.4244 72.07028 L 171.5494 71.19528 L 171.5494 80.97232 Z M 55.70114 67.41836 L 52.70114 61.41836 L 49.70114 67.41836 Z " fill="#404040"/>
</g>
</svg>
